HIERARCHY
ROOT Hips
{
	OFFSET 0.000000 0.000000 0.000000
	CHANNELS 6 Xposition Yposition Zposition Zrotation Yrotation Xrotation 
	JOINT LowerBack
	{
		OFFSET 0.000000 0.000000 0.000000
		CHANNELS 3 Zrotation Yrotation Xrotation
		JOINT Spine
		{
			OFFSET 0.028270 2.035590 -0.193380
			CHANNELS 3 Zrotation Yrotation Xrotation
			JOINT Spine1
			{
				OFFSET 0.056720 2.048850 -0.042750
				CHANNELS 3 Zrotation Yrotation Xrotation
				JOINT Neck
				{
					OFFSET 0.000000 0.000000 0.000000
					CHANNELS 3 Zrotation Yrotation Xrotation
					JOINT Neck1
					{
						OFFSET -0.054170 1.746240 0.172020
						CHANNELS 3 Zrotation Yrotation Xrotation
						JOINT Head
						{
							OFFSET 0.104070 1.761360 -0.123970
							CHANNELS 3 Zrotation Yrotation Xrotation
							End Site
							{
								OFFSET 0.000000 0.000000 0.000000
							}
						}
					}
				}
				JOINT LeftShoulder
				{
					OFFSET 0.000000 0.000000 0.000000
					CHANNELS 3 Zrotation Yrotation Xrotation
					JOINT LeftArm
					{
						OFFSET 3.362410 1.200890 -0.311210
						CHANNELS 3 Zrotation Yrotation Xrotation
						JOINT LeftForeArm
						{
							OFFSET 4.983000 -0.000000 -0.000000
							CHANNELS 3 Zrotation Yrotation Xrotation
							JOINT LeftHand
							{
								OFFSET 3.483560 -0.000000 -0.000000
								CHANNELS 3 Zrotation Yrotation Xrotation
								JOINT LeftFingerBase
								{
									OFFSET 0.000000 0.000000 0.000000
									CHANNELS 3 Zrotation Yrotation Xrotation
									JOINT LeftHandIndex1
									{
										OFFSET 0.715260 -0.000000 -0.000000
										CHANNELS 3 Zrotation Yrotation Xrotation
										End Site
										{
											OFFSET 0.000000 0.000000 0.000000
										}
									}
								}
								JOINT LThumb
								{
									OFFSET 0.000000 0.000000 0.000000
									CHANNELS 3 Zrotation Yrotation Xrotation
									End Site
									{
										OFFSET 0.000000 0.000000 0.000000
									}
								}
							}
						}
					}
				}
				JOINT RightShoulder
				{
					OFFSET 0.000000 0.000000 0.000000
					CHANNELS 3 Zrotation Yrotation Xrotation
					JOINT RightArm
					{
						OFFSET -3.136600 1.374050 -0.404650
						CHANNELS 3 Zrotation Yrotation Xrotation
						JOINT RightForeArm
						{
							OFFSET -5.241900 -0.000000 -0.000000
							CHANNELS 3 Zrotation Yrotation Xrotation
							JOINT RightHand
							{
								OFFSET -3.444170 -0.000000 -0.000000
								CHANNELS 3 Zrotation Yrotation Xrotation
								JOINT RightFingerBase
								{
									OFFSET 0.000000 0.000000 0.000000
									CHANNELS 3 Zrotation Yrotation Xrotation
									JOINT RightHandIndex1
									{
										OFFSET -0.622530 -0.000000 -0.000000
										CHANNELS 3 Zrotation Yrotation Xrotation
										End Site
										{
											OFFSET 0.000000 0.000000 0.000000
										}
									}
								}
								JOINT RThumb
								{
									OFFSET 0.000000 0.000000 0.000000
									CHANNELS 3 Zrotation Yrotation Xrotation
									End Site
									{
										OFFSET 0.000000 0.000000 0.000000
									}
								}
							}
						}
					}
				}
			}
		}
	}
}
}
MOTION
Frames: 10
Frame Time: 0.008333
3.955829 17.126141 1.873633 12.695537 -23.747077 0.299598 -3.943298 1.380472 -6.061768 -1.003767 1.742163 -4.367152 -2.516436 1.627359 -2.313122 -1.723343 1.877442 2.076162 -2.517370 -0.310000 2.680690 0.000000 0.000000 0.000000 7.004260 8.192063 -8.724078 -99.315564 -59.209706 59.331266 179.799628 -75.666067 179.898041 8.397283 -2.077091 -0.211601 -0.180658 0.761485 -0.000000 0.000000 0.000000 0.000000 0.000000 0.000000 0.000000 -1.703190 8.122784 3.635972 24.155426 1.848064 -37.152740 -0.426536 52.376027 -0.158182 -21.207169 3.849018 -0.818834 0.218008 -0.483249 -0.000000 0.000000 0.000000 0.000000 0.000000 0.000000 0.000000 
3.965971 17.127073 1.865763 12.915076 -24.022540 0.132867 -3.547575 1.507912 -6.098708 -0.875494 1.842583 -4.267590 -2.256478 1.739298 -1.948638 -2.921256 2.687404 1.794201 -2.363794 -0.296334 2.599136 0.000000 0.000000 0.000000 6.140363 9.142421 -8.412680 -97.646400 -59.123645 57.641225 179.771684 -75.124860 179.897612 8.585375 -1.843580 -0.197138 -0.184281 0.740360 -0.000000 0.000000 0.000000 0.000000 0.000000 0.000000 0.000000 -3.199256 8.751020 3.737997 20.150779 5.658267 -40.649295 -0.704156 43.919425 -0.156184 -20.265703 4.382179 -0.882642 0.219572 -0.504365 -0.000000 0.000000 0.000000 0.000000 0.000000 0.000000 0.000000 
3.974845 17.129367 1.856818 13.144860 -24.356799 -0.003359 -3.149359 1.668652 -6.072148 -0.744815 1.975969 -4.172237 -1.993604 1.880661 -1.666839 -4.164646 3.436878 1.486223 -2.196484 -0.281569 2.512064 0.000000 0.000000 0.000000 5.288590 9.999075 -8.196648 -96.428655 -58.851918 56.183247 179.721357 -74.591106 179.896883 8.790000 -1.661440 -0.186167 -0.185521 0.721368 -0.000000 0.000000 0.000000 0.000000 0.000000 0.000000 0.000000 -4.858839 9.349240 3.891615 16.313976 9.054612 -44.770256 -1.004815 35.373648 -0.153578 -19.499887 4.990379 -0.959346 0.232223 -0.525183 -0.000000 0.000000 0.000000 0.000000 0.000000 0.000000 0.000000 
3.981326 17.133009 1.846874 13.373125 -24.709257 -0.103212 -2.776496 1.853762 -5.990612 -0.614121 2.136071 -4.083795 -1.712250 2.044571 -1.463391 -5.435673 4.080556 1.161517 -2.013068 -0.265697 2.422605 0.000000 0.000000 0.000000 4.465181 10.745370 -8.077702 -95.667810 -58.416364 54.990165 179.648787 -74.061766 179.896192 8.986021 -1.539077 -0.179291 -0.183411 0.704400 -0.000000 0.000000 0.000000 0.000000 0.000000 0.000000 0.000000 -6.662576 9.868334 4.083867 12.636457 12.015379 -49.784010 -1.305116 26.933919 -0.148973 -18.873671 5.835781 -1.075551 0.253388 -0.544569 -0.000000 0.000000 0.000000 0.000000 0.000000 0.000000 0.000000 
3.984466 17.138076 1.836213 13.584130 -25.047912 -0.160555 -2.456669 2.049957 -5.873348 -0.484667 2.312920 -4.006991 -1.391852 2.220560 -1.330874 -6.697448 4.607483 0.839360 -1.814567 -0.249071 2.336344 0.000000 0.000000 0.000000 3.683151 11.367801 -8.042473 -95.334675 -57.844166 54.066789 179.557193 -73.534769 179.895802 9.146994 -1.479081 -0.176507 -0.177397 0.689669 -0.000000 0.000000 0.000000 0.000000 0.000000 0.000000 0.000000 -8.542363 10.290794 4.296266 9.054269 14.472718 -55.968910 -1.593013 18.833047 -0.141508 -18.372854 7.060404 -1.253249 0.278107 -0.562210 -0.000000 0.000000 0.000000 0.000000 0.000000 0.000000 0.000000 
3.983580 17.144634 1.825287 13.755910 -25.348654 -0.169936 -2.219855 2.242875 -5.750518 -0.358183 2.495947 -3.949742 -1.011698 2.397792 -1.264966 -7.884210 5.093464 0.556660 -1.603944 -0.232403 2.263312 0.000000 0.000000 0.000000 2.964079 11.844883 -8.065025 -95.381103 -57.154403 53.396131 179.453190 -73.016341 179.895835 9.249245 -1.476908 -0.177306 -0.167558 0.677813 -0.000000 0.000000 0.000000 0.000000 0.000000 0.000000 0.000000 -10.394099 10.690531 4.513232 5.538636 16.181679 -63.234451 -1.859047 11.424229 -0.131917 -18.082350 8.603818 -1.488622 0.302154 -0.576821 -0.000000 0.000000 0.000000 0.000000 0.000000 0.000000 0.000000 
3.978240 17.152588 1.814753 13.863973 -25.590419 -0.127418 -2.101384 2.422937 -5.656739 -0.243498 2.678711 -3.922256 -0.577426 2.570548 -1.271259 -8.880054 5.676267 0.364821 -1.389724 -0.216931 2.217091 0.000000 0.000000 0.000000 2.377494 12.138040 -8.119488 -95.777388 -56.340638 52.960599 179.345830 -72.528202 179.896257 9.274609 -1.525127 -0.181080 -0.154563 0.669963 -0.000000 0.000000 0.000000 0.000000 0.000000 0.000000 0.000000 -12.074421 11.209536 4.716398 2.320776 16.751473 -69.992185 -2.057407 5.345132 -0.123467 -18.340710 9.773147 -1.706249 0.332209 -0.579095 -0.000000 0.000000 0.000000 0.000000 0.000000 0.000000 0.000000 
3.968348 17.161443 1.804963 13.895880 -25.755344 -0.033906 -2.121349 2.586855 -5.607719 -0.158033 2.857539 -3.924664 -0.147942 2.737821 -1.343781 -9.576089 6.289121 0.274567 -1.189483 -0.203879 2.199885 0.000000 0.000000 0.000000 2.024622 12.230061 -8.204424 -96.517022 -55.399041 52.752791 179.239901 -72.089678 179.897063 9.210958 -1.618785 -0.187023 -0.138747 0.666570 -0.000000 0.000000 0.000000 0.000000 0.000000 0.000000 0.000000 -13.445815 11.779366 4.874646 -0.207337 16.361778 -73.826489 -2.127541 1.049431 -0.118228 -19.309122 9.775491 -1.797429 0.379337 -0.559274 -0.000000 0.000000 0.000000 0.000000 0.000000 0.000000 0.000000 
3.954511 17.170739 1.795879 13.855818 -25.838670 0.104356 -2.255820 2.728103 -5.595864 -0.107273 3.022223 -3.940944 0.227329 2.891550 -1.438285 -9.997940 6.620379 0.227012 -1.010394 -0.192875 2.195021 0.000000 0.000000 0.000000 1.911547 12.163791 -8.329531 -97.524677 -54.382343 52.719249 179.132373 -71.678257 179.898302 9.062974 -1.746554 -0.194050 -0.120042 0.666254 -0.000000 0.000000 0.000000 0.000000 0.000000 0.000000 0.000000 -14.527480 12.086243 4.973191 -1.997863 15.837502 -74.882022 -2.099649 -1.733136 -0.114901 -20.470719 8.974161 -1.755474 0.433286 -0.526950 -0.000000 0.000000 0.000000 0.000000 0.000000 0.000000 0.000000 
3.937700 17.180260 1.787433 13.753290 -25.851658 0.282770 -2.461153 2.837654 -5.612191 -0.081232 3.160116 -3.956018 0.547442 3.018933 -1.510404 -10.252810 6.471707 0.166410 -0.839722 -0.182351 2.186973 0.000000 0.000000 0.000000 1.959624 11.995767 -8.487990 -98.668772 -53.361482 52.769858 179.020047 -71.246591 179.899971 8.849777 -1.888651 -0.200473 -0.098948 0.667197 -0.000000 0.000000 0.000000 0.000000 0.000000 0.000000 0.000000 -15.487932 11.945440 5.016648 -3.092796 15.699989 -74.905575 -2.064355 -3.259535 -0.113062 -21.347287 8.128365 -1.664999 0.477464 -0.499708 -0.000000 0.000000 0.000000 0.000000 0.000000 0.000000 0.000000 
